<?xml version="1.0" encoding="UTF-8"?>
<svg version="1.1" xmlns="http://www.w3.org/2000/svg" width="32" height="32">
<path d="M0 0 C10.56 0 21.12 0 32 0 C32 10.56 32 21.12 32 32 C21.44 32 10.88 32 0 32 C0 21.44 0 10.88 0 0 Z " fill="#006332" transform="translate(0,0)"/>
<path d="M0 0 C5.28 0 10.56 0 16 0 C16 6.19519509 14.98542156 6.71567182 11 11 C11.99 11 12.98 11 14 11 C14 10.01 14 9.02 14 8 C15.32 8.33 16.64 8.66 18 9 C17.67 9.99 17.34 10.98 17 12 C13.92382812 12.29296875 13.92382812 12.29296875 10.84765625 12.5859375 C10.23792969 12.72257812 9.62820312 12.85921875 9 13 C8.67 13.66 8.34 14.32 8 15 C10.64 15 13.28 15 16 15 C16 16.65 16 18.3 16 20 C10.72 20 5.44 20 0 20 C0 15 0 15 2 13 C0.68 12.34 -0.64 11.68 -2 11 C-1.67 10.01 -1.34 9.02 -1 8 C1.06640625 7.26953125 1.06640625 7.26953125 3.5625 6.8125 C4.38878906 6.65394531 5.21507812 6.49539062 6.06640625 6.33203125 C6.70449219 6.22246094 7.34257812 6.11289063 8 6 C5.36 5.67 2.72 5.34 0 5 C0 3.35 0 1.7 0 0 Z " fill="#1B3203" transform="translate(8,6)"/>
<path d="M0 0 C3.63 0 7.26 0 11 0 C9.8553125 0.8971875 9.8553125 0.8971875 8.6875 1.8125 C4.36789787 5.21511548 4.36789787 5.21511548 2 10 C1.90580663 11.78967404 1.87009002 13.58285563 1.875 15.375 C1.87242187 16.31085937 1.86984375 17.24671875 1.8671875 18.2109375 C1.99674287 20.93160024 2.28412123 23.37203214 3 26 C4.79927039 27.27489266 4.79927039 27.27489266 7 28 C7.60457031 28.34160156 8.20914062 28.68320312 8.83203125 29.03515625 C13.68345748 31.19425945 19.42283197 30.30980086 24.5 29.3125 C27.19791667 28.19791667 27.19791667 28.19791667 28.3125 25.5 C28.539375 24.675 28.76625 23.85 29 23 C29.33 22.34 29.66 21.68 30 21 C30.41593526 16.48070346 30.55848834 12.35212967 28.8125 8.125 C25.33907958 4.052714 22.41332791 1.61866605 17 1 C17 0.67 17 0.34 17 0 C21.95 0 26.9 0 32 0 C32 10.56 32 21.12 32 32 C21.44 32 10.88 32 0 32 C0 21.44 0 10.88 0 0 Z " fill="#443701" transform="translate(0,0)"/>
<path d="M0 0 C0.99 0 1.98 0 3 0 C3 0.99 3 1.98 3 3 C5.97 3 8.94 3 12 3 C12 3.99 12 4.98 12 6 C7.38 6 2.76 6 -2 6 C-1 2 -1 2 0 0 Z " fill="#533400" transform="translate(11,19)"/>
<path d="M0 0 C4.62 0 9.24 0 14 0 C14 1.65 14 3.3 14 5 C12.68 5 11.36 5 10 5 C10 4.34 10 3.68 10 3 C6.7 3 3.4 3 0 3 C0 2.01 0 1.02 0 0 Z " fill="#533500" transform="translate(9,7)"/>
<path d="M0 0 C-1.98 2.97 -1.98 2.97 -4 6 C-5.98 5.34 -7.96 4.68 -10 4 C-9.67 3.01 -9.34 2.02 -9 1 C-6.03421164 -0.16513114 -3.15436364 -0.08762121 0 0 Z " fill="#08400F" transform="translate(16,13)"/>
<path d="M0 0 C3.3 0 6.6 0 10 0 C10 0.66 10 1.32 10 2 C10.66 2.33 11.32 2.66 12 3 C12.625 5.5625 12.625 5.5625 13 8 C12.48050781 7.57847656 11.96101563 7.15695313 11.42578125 6.72265625 C6.29853692 2.56571021 6.29853692 2.56571021 0 1 C0 0.67 0 0.34 0 0 Z " fill="#2E3503" transform="translate(17,0)"/>
<path d="M0 0 C1.32 0.33 2.64 0.66 4 1 C3.67 1.99 3.34 2.98 3 4 C0.69 4.33 -1.62 4.66 -4 5 C-4 4.01 -4 3.02 -4 2 C-2.02 2.495 -2.02 2.495 0 3 C0 2.01 0 1.02 0 0 Z " fill="#0B3607" transform="translate(22,14)"/>
<path d="M0 0 C3.465 1.98 3.465 1.98 7 4 C7 4.33 7 4.66 7 5 C3.7 5 0.4 5 -3 5 C-2.67 4.34 -2.34 3.68 -2 3 C-1.34 3 -0.68 3 0 3 C0 2.01 0 1.02 0 0 Z " fill="#353602" transform="translate(4,26)"/>
<path d="M0 0 C0.33 0.99 0.66 1.98 1 3 C-3.62 3 -8.24 3 -13 3 C-13 2.67 -13 2.34 -13 2 C-12.06027344 1.90912109 -12.06027344 1.90912109 -11.1015625 1.81640625 C-9.87566406 1.69072266 -9.87566406 1.69072266 -8.625 1.5625 C-7.81289063 1.48128906 -7.00078125 1.40007813 -6.1640625 1.31640625 C-3.85304959 0.97851447 -2.33455672 0 0 0 Z " fill="#203504" transform="translate(25,29)"/>
<path d="M0 0 C0 0.99 0 1.98 0 3 C-1.98 3 -3.96 3 -6 3 C-6.33 2.01 -6.66 1.02 -7 0 C-3.98968256 -0.93423645 -3.13349732 -1.04449911 0 0 Z " fill="#583800" transform="translate(32,29)"/>
</svg>
